<?xml version="1.0" standalone="no"?>
<!DOCTYPE svg PUBLIC "-//W3C//DTD SVG 20010904//EN"
 "http://www.w3.org/TR/2001/REC-SVG-20010904/DTD/svg10.dtd">
<svg version="1.0" xmlns="http://www.w3.org/2000/svg"
 width="512.000000pt" height="512.000000pt" viewBox="0 0 512.000000 512.000000"
 preserveAspectRatio="xMidYMid meet">
<metadata>
Created by potrace 1.14, written by Peter Selinger 2001-2017
</metadata>
<g transform="translate(0.000000,512.000000) scale(0.100000,-0.100000)"
fill="#000000" stroke="none">
<path d="M2379 5116 c-2 -2 -40 -6 -83 -10 -44 -4 -82 -9 -85 -11 -4 -2 -34
-7 -66 -10 -88 -10 -345 -77 -460 -120 -210 -78 -420 -188 -600 -316 -135 -95
-192 -143 -318 -267 -364 -358 -617 -823 -716 -1312 -38 -190 -46 -274 -45
-520 0 -184 3 -241 19 -345 3 -16 7 -43 9 -60 14 -91 40 -202 78 -330 86 -285
229 -563 416 -810 116 -152 273 -311 447 -454 311 -253 771 -457 1170 -516 22
-4 51 -8 65 -11 104 -19 470 -26 605 -11 572 61 1103 306 1504 691 221 212
387 433 521 696 96 188 157 355 208 565 32 131 42 189 59 340 10 90 10 408 1
505 -60 599 -333 1163 -764 1582 -105 102 -130 123 -254 216 -173 131 -345
229 -585 332 -85 37 -376 122 -465 136 -14 2 -38 6 -55 9 -16 3 -50 8 -75 11
-25 3 -56 8 -70 10 -29 6 -456 15 -461 10z m416 -649 c11 -3 45 -8 75 -13 30
-4 57 -8 60 -9 3 -1 21 -5 40 -9 483 -105 930 -414 1195 -826 79 -124 89 -141
137 -245 75 -160 133 -356 159 -530 14 -101 19 -387 8 -480 -29 -236 -82 -419
-180 -622 -173 -360 -435 -641 -785 -843 -47 -28 -90 -50 -97 -50 -6 0 -18 -6
-26 -14 -9 -7 -53 -28 -98 -45 -259 -98 -430 -132 -688 -136 -219 -4 -411 22
-590 78 -5 2 -30 10 -55 17 -25 7 -49 17 -54 22 -6 4 -16 8 -24 8 -23 0 -230
102 -320 158 -46 28 -118 78 -160 109 -96 73 -279 255 -354 354 -48 64 -188
281 -188 293 0 2 -18 43 -40 90 -46 98 -79 193 -110 316 -20 79 -29 123 -47
240 -15 100 -7 457 12 544 3 11 7 32 9 46 49 297 215 639 434 893 67 78 190
197 257 248 17 13 32 26 35 29 3 4 50 36 105 72 121 79 317 176 440 216 107
36 294 78 385 87 36 4 66 8 68 10 5 5 374 -3 397 -8z"/>
<path d="M2125 3833 c-109 -24 -284 -94 -305 -123 -3 -4 -13 -11 -24 -17 -36
-20 -136 -126 -179 -192 -24 -36 -56 -97 -71 -134 -50 -129 -53 -171 -51 -837
1 -338 5 -628 9 -645 56 -253 240 -469 471 -556 126 -47 156 -49 750 -46 l560
2 50 25 c64 31 124 91 155 155 35 72 35 198 0 270 -29 58 -96 128 -143 149
-77 34 -100 35 -613 36 -555 0 -557 1 -586 53 -8 14 -13 68 -14 144 l-1 122
361 3 361 3 57 28 c62 30 115 83 150 149 32 62 35 188 6 258 -29 70 -89 134
-156 167 l-57 28 -361 3 -362 3 2 122 c2 128 10 157 49 179 17 10 151 14 562
18 l540 5 50 25 c164 81 226 263 149 437 -21 46 -91 114 -149 143 l-50 25
-570 1 c-313 1 -579 0 -590 -3z"/>
</g>
</svg>
